<?xml version="1.0" encoding="UTF-8"?>
<svg xmlns="http://www.w3.org/2000/svg" xmlns:xlink="http://www.w3.org/1999/xlink" width="48px" height="48px" viewBox="0 0 48 48" version="1.1">
<g id="surface1">
<path style="fill-rule:nonzero;fill:rgb(74.901961%,61.568627%,35.686275%);fill-opacity:1;" d="M 23.367188 1.164062 C 23.789062 1.164062 24.210938 1.164062 24.527344 1.164062 C 27.59375 1.269531 30.660156 1.902344 33.410156 3.277344 C 35.734375 4.335938 37.957031 5.816406 39.753906 7.613281 C 41.65625 9.410156 43.136719 11.523438 44.300781 13.957031 C 45.25 15.964844 45.992188 18.078125 46.308594 20.300781 C 46.519531 21.78125 46.625 23.152344 46.625 24.632812 C 46.519531 28.757812 45.355469 32.5625 43.136719 36.054688 C 40.917969 39.542969 38.0625 42.289062 34.359375 44.195312 C 32.140625 45.355469 29.816406 46.097656 27.382812 46.519531 C 25.902344 46.730469 24.421875 46.835938 22.941406 46.835938 C 18.078125 46.625 13.746094 45.144531 9.9375 42.183594 C 5.605469 38.90625 2.855469 34.574219 1.480469 29.179688 C 1.269531 27.59375 1.058594 26.007812 1.058594 24.316406 C 1.058594 18.503906 2.960938 13.320312 6.765625 8.988281 C 9.9375 5.285156 14.0625 2.855469 18.820312 1.691406 C 20.300781 1.375 21.78125 1.164062 23.367188 1.164062 Z M 23.894531 3.488281 C 12.582031 3.59375 3.488281 12.6875 3.382812 23.894531 C 3.382812 35.3125 12.582031 44.40625 23.683594 44.511719 C 35.101562 44.617188 44.511719 35.207031 44.40625 23.789062 C 44.300781 12.6875 35.3125 3.59375 23.894531 3.488281 Z M 23.894531 3.488281 "/>
<path style="fill-rule:nonzero;fill:rgb(74.901961%,61.568627%,35.686275%);fill-opacity:1;" d="M 7.824219 34.785156 C 7.824219 34.46875 7.929688 34.148438 8.035156 33.832031 C 9.9375 27.804688 11.839844 21.78125 13.746094 15.753906 C 14.0625 14.695312 14.378906 13.640625 14.800781 12.582031 C 15.648438 9.9375 18.925781 9.09375 20.933594 11.101562 C 21.039062 11.207031 21.144531 11.207031 21.25 11.101562 C 22.097656 9.410156 22.941406 7.71875 23.894531 6.132812 C 23.894531 6.027344 24 6.027344 24 5.921875 C 24.953125 7.71875 25.902344 9.515625 26.855469 11.3125 C 27.171875 10.996094 27.59375 10.679688 28.019531 10.46875 C 30.132812 9.410156 32.667969 10.574219 33.199219 12.792969 C 33.515625 13.851562 33.832031 14.90625 34.148438 15.964844 C 35.839844 21.355469 37.53125 26.75 39.332031 32.246094 C 39.542969 33.09375 39.859375 33.832031 40.070312 34.679688 C 40.070312 34.785156 40.175781 34.785156 40.070312 34.890625 C 39.648438 34.46875 39.226562 33.9375 38.90625 33.515625 C 35.839844 29.816406 32.773438 26.113281 29.710938 22.414062 C 29.074219 21.675781 28.441406 20.933594 27.910156 20.195312 C 27.910156 20.195312 27.804688 20.089844 27.699219 20.089844 C 27.488281 21.039062 27.277344 21.886719 27.066406 22.835938 C 26.324219 26.433594 25.480469 29.921875 24.738281 33.515625 C 24.738281 33.726562 24.738281 33.9375 24.847656 34.148438 C 25.058594 36.054688 25.375 37.851562 25.585938 39.753906 C 25.796875 41.023438 25.902344 42.183594 26.113281 43.453125 C 26.113281 43.664062 26.007812 43.875 25.902344 43.875 C 25.691406 43.875 25.585938 43.769531 25.480469 43.558594 C 25.164062 42.078125 24.738281 40.703125 24.421875 39.226562 C 24.316406 38.695312 24.210938 38.273438 24 37.746094 C 23.894531 37.957031 23.894531 38.273438 23.789062 38.484375 C 23.367188 40.175781 22.941406 41.867188 22.519531 43.664062 C 22.414062 43.875 22.308594 43.980469 22.097656 43.980469 C 21.886719 43.980469 21.78125 43.769531 21.886719 43.558594 C 21.992188 42.394531 22.203125 41.128906 22.308594 39.964844 C 22.519531 38.695312 22.625 37.320312 22.835938 36.054688 C 22.941406 35.3125 22.941406 34.679688 23.152344 33.9375 C 23.152344 33.832031 23.152344 33.832031 23.152344 33.726562 C 22.308594 29.816406 21.460938 25.902344 20.617188 22.097656 C 20.511719 21.460938 20.300781 20.933594 20.195312 20.300781 C 19.875 20.617188 19.664062 20.933594 19.347656 21.25 C 16.175781 25.058594 13.109375 28.757812 9.9375 32.5625 C 9.304688 33.09375 8.5625 33.9375 7.824219 34.785156 Z M 7.824219 34.785156 "/>
</g>
</svg>
